<mxfile host="Electron" agent="Mozilla/5.0 (Windows NT 10.0; Win64; x64) AppleWebKit/537.36 (KHTML, like Gecko) draw.io/24.7.17 Chrome/128.0.6613.36 Electron/32.0.1 Safari/537.36" version="24.7.17" pages="2">
  <diagram name="Página-1" id="A1Y2EhQFVSGSQT5lKNWS">
    <mxGraphModel dx="1674" dy="836" grid="1" gridSize="10" guides="1" tooltips="1" connect="1" arrows="1" fold="1" page="1" pageScale="1" pageWidth="827" pageHeight="1169" math="0" shadow="0">
      <root>
        <mxCell id="0" />
        <mxCell id="1" parent="0" />
        <mxCell id="_GzGoSDeJ9tNwSs_yldu-5" value="" style="image;aspect=fixed;perimeter=ellipsePerimeter;html=1;align=center;shadow=0;dashed=0;spacingTop=3;image=img/lib/active_directory/generic_server.svg;" vertex="1" parent="1">
          <mxGeometry x="460" y="137" width="28.000000000000004" height="50" as="geometry" />
        </mxCell>
        <mxCell id="_GzGoSDeJ9tNwSs_yldu-8" value="" style="image;aspect=fixed;perimeter=ellipsePerimeter;html=1;align=center;shadow=0;dashed=0;spacingTop=3;image=img/lib/active_directory/internet_cloud.svg;" vertex="1" parent="1">
          <mxGeometry x="30" y="240" width="150" height="94.5" as="geometry" />
        </mxCell>
        <mxCell id="_GzGoSDeJ9tNwSs_yldu-9" value="" style="image;html=1;image=img/lib/clip_art/networking/Router_Icon_128x128.png" vertex="1" parent="1">
          <mxGeometry x="340" y="137" width="36" height="50" as="geometry" />
        </mxCell>
        <mxCell id="_GzGoSDeJ9tNwSs_yldu-11" value="" style="image;html=1;image=img/lib/clip_art/networking/Firewall-page1_128x128.png" vertex="1" parent="1">
          <mxGeometry x="230" y="133.5" width="50" height="57" as="geometry" />
        </mxCell>
        <mxCell id="_GzGoSDeJ9tNwSs_yldu-13" value="" style="image;html=1;image=img/lib/clip_art/networking/Firewall-page1_128x128.png" vertex="1" parent="1">
          <mxGeometry x="225" y="410" width="60" height="60" as="geometry" />
        </mxCell>
        <mxCell id="_GzGoSDeJ9tNwSs_yldu-14" value="" style="image;html=1;image=img/lib/clip_art/networking/Router_Icon_128x128.png" vertex="1" parent="1">
          <mxGeometry x="336" y="420" width="40" height="50" as="geometry" />
        </mxCell>
        <mxCell id="_GzGoSDeJ9tNwSs_yldu-15" value="" style="verticalLabelPosition=bottom;html=1;verticalAlign=top;align=center;strokeColor=none;fillColor=#00BEF2;shape=mxgraph.azure.enterprise;pointerEvents=1;" vertex="1" parent="1">
          <mxGeometry x="460" y="430" width="40" height="50" as="geometry" />
        </mxCell>
        <mxCell id="_GzGoSDeJ9tNwSs_yldu-16" value="" style="image;html=1;image=img/lib/clip_art/networking/Router_Icon_128x128.png" vertex="1" parent="1">
          <mxGeometry x="335" y="470" width="45" height="30" as="geometry" />
        </mxCell>
        <mxCell id="_GzGoSDeJ9tNwSs_yldu-17" value="" style="ellipse;whiteSpace=wrap;html=1;fillColor=none;" vertex="1" parent="1">
          <mxGeometry x="188" y="62" width="340" height="200" as="geometry" />
        </mxCell>
        <mxCell id="_GzGoSDeJ9tNwSs_yldu-18" value="" style="ellipse;whiteSpace=wrap;html=1;fillColor=none;" vertex="1" parent="1">
          <mxGeometry x="210" y="355" width="340" height="170" as="geometry" />
        </mxCell>
        <mxCell id="_GzGoSDeJ9tNwSs_yldu-19" value="Centro de Processamento de Dados Altia&lt;div&gt;&lt;br&gt;&lt;/div&gt;" style="text;html=1;align=center;verticalAlign=middle;resizable=0;points=[];autosize=1;strokeColor=none;fillColor=none;" vertex="1" parent="1">
          <mxGeometry x="238" y="37" width="240" height="40" as="geometry" />
        </mxCell>
        <mxCell id="_GzGoSDeJ9tNwSs_yldu-20" value="LAN Selmark" style="text;html=1;align=center;verticalAlign=middle;resizable=0;points=[];autosize=1;strokeColor=none;fillColor=none;" vertex="1" parent="1">
          <mxGeometry x="324" y="318" width="90" height="30" as="geometry" />
        </mxCell>
        <mxCell id="_GzGoSDeJ9tNwSs_yldu-21" value="" style="endArrow=none;html=1;rounded=0;entryX=0;entryY=0.5;entryDx=0;entryDy=0;" edge="1" parent="1" target="_GzGoSDeJ9tNwSs_yldu-5">
          <mxGeometry width="50" height="50" relative="1" as="geometry">
            <mxPoint x="374" y="161.5" as="sourcePoint" />
            <mxPoint x="454" y="161.5" as="targetPoint" />
            <Array as="points">
              <mxPoint x="414" y="161.5" />
            </Array>
          </mxGeometry>
        </mxCell>
        <mxCell id="_GzGoSDeJ9tNwSs_yldu-23" value="" style="endArrow=none;html=1;rounded=0;entryX=0;entryY=0.5;entryDx=0;entryDy=0;" edge="1" parent="1">
          <mxGeometry width="50" height="50" relative="1" as="geometry">
            <mxPoint x="270" y="162" as="sourcePoint" />
            <mxPoint x="340" y="162" as="targetPoint" />
            <Array as="points">
              <mxPoint x="294" y="161.5" />
            </Array>
          </mxGeometry>
        </mxCell>
        <mxCell id="_GzGoSDeJ9tNwSs_yldu-24" value="" style="endArrow=none;html=1;rounded=0;entryX=0;entryY=0.5;entryDx=0;entryDy=0;exitX=0.75;exitY=0;exitDx=0;exitDy=0;" edge="1" parent="1" source="_GzGoSDeJ9tNwSs_yldu-8" target="_GzGoSDeJ9tNwSs_yldu-11">
          <mxGeometry width="50" height="50" relative="1" as="geometry">
            <mxPoint x="199" y="270" as="sourcePoint" />
            <mxPoint x="285" y="270.5" as="targetPoint" />
            <Array as="points" />
          </mxGeometry>
        </mxCell>
        <mxCell id="_GzGoSDeJ9tNwSs_yldu-25" value="" style="endArrow=none;html=1;rounded=0;entryX=0;entryY=0.5;entryDx=0;entryDy=0;exitX=0.75;exitY=1;exitDx=0;exitDy=0;" edge="1" parent="1" source="_GzGoSDeJ9tNwSs_yldu-8" target="_GzGoSDeJ9tNwSs_yldu-13">
          <mxGeometry width="50" height="50" relative="1" as="geometry">
            <mxPoint x="148" y="255" as="sourcePoint" />
            <mxPoint x="240" y="172" as="targetPoint" />
            <Array as="points" />
          </mxGeometry>
        </mxCell>
        <mxCell id="_GzGoSDeJ9tNwSs_yldu-26" value="" style="endArrow=none;html=1;rounded=0;entryX=0;entryY=0.25;entryDx=0;entryDy=0;" edge="1" parent="1" target="_GzGoSDeJ9tNwSs_yldu-14">
          <mxGeometry width="50" height="50" relative="1" as="geometry">
            <mxPoint x="280" y="420" as="sourcePoint" />
            <mxPoint x="250" y="182" as="targetPoint" />
            <Array as="points" />
          </mxGeometry>
        </mxCell>
        <mxCell id="_GzGoSDeJ9tNwSs_yldu-27" value="" style="endArrow=none;html=1;rounded=0;entryX=0;entryY=0.25;entryDx=0;entryDy=0;" edge="1" parent="1">
          <mxGeometry width="50" height="50" relative="1" as="geometry">
            <mxPoint x="279" y="467" as="sourcePoint" />
            <mxPoint x="335" y="480" as="targetPoint" />
            <Array as="points" />
          </mxGeometry>
        </mxCell>
        <mxCell id="_GzGoSDeJ9tNwSs_yldu-28" value="" style="endArrow=none;html=1;rounded=0;entryX=0;entryY=0.37;entryDx=0;entryDy=0;entryPerimeter=0;" edge="1" parent="1" target="_GzGoSDeJ9tNwSs_yldu-15">
          <mxGeometry width="50" height="50" relative="1" as="geometry">
            <mxPoint x="376" y="448.5" as="sourcePoint" />
            <mxPoint x="432" y="461.5" as="targetPoint" />
            <Array as="points" />
          </mxGeometry>
        </mxCell>
        <mxCell id="_GzGoSDeJ9tNwSs_yldu-29" value="" style="endArrow=none;html=1;rounded=0;entryX=0;entryY=0.37;entryDx=0;entryDy=0;entryPerimeter=0;" edge="1" parent="1">
          <mxGeometry width="50" height="50" relative="1" as="geometry">
            <mxPoint x="380" y="480" as="sourcePoint" />
            <mxPoint x="464" y="480.5" as="targetPoint" />
            <Array as="points" />
          </mxGeometry>
        </mxCell>
      </root>
    </mxGraphModel>
  </diagram>
  <diagram id="8jPA9TF19uxisIZI0DvG" name="Página-2">
    <mxGraphModel dx="1674" dy="836" grid="1" gridSize="10" guides="1" tooltips="1" connect="1" arrows="1" fold="1" page="1" pageScale="1" pageWidth="827" pageHeight="1169" math="0" shadow="0">
      <root>
        <mxCell id="0" />
        <mxCell id="1" parent="0" />
        <mxCell id="Fymf_JLJD3A4nTiIDgcB-1" value="" style="fontColor=#0066CC;verticalAlign=top;verticalLabelPosition=bottom;labelPosition=center;align=center;html=1;outlineConnect=0;fillColor=#CCCCCC;strokeColor=#6881B3;gradientColor=none;gradientDirection=north;strokeWidth=2;shape=mxgraph.networks.pc;" vertex="1" parent="1">
          <mxGeometry x="153.2" y="90" width="46.8" height="40" as="geometry" />
        </mxCell>
        <mxCell id="Fymf_JLJD3A4nTiIDgcB-5" value="" style="image;aspect=fixed;perimeter=ellipsePerimeter;html=1;align=center;shadow=0;dashed=0;spacingTop=3;image=img/lib/active_directory/cell_phone.svg;" vertex="1" parent="1">
          <mxGeometry x="530" y="515" width="21" height="50" as="geometry" />
        </mxCell>
        <mxCell id="Fymf_JLJD3A4nTiIDgcB-6" value="" style="image;aspect=fixed;perimeter=ellipsePerimeter;html=1;align=center;shadow=0;dashed=0;spacingTop=3;image=img/lib/active_directory/cell_phone.svg;" vertex="1" parent="1">
          <mxGeometry x="472.9" y="515" width="21" height="50" as="geometry" />
        </mxCell>
        <mxCell id="Fymf_JLJD3A4nTiIDgcB-7" value="" style="image;aspect=fixed;perimeter=ellipsePerimeter;html=1;align=center;shadow=0;dashed=0;spacingTop=3;image=img/lib/active_directory/cell_phone.svg;" vertex="1" parent="1">
          <mxGeometry x="430" y="515" width="21" height="50" as="geometry" />
        </mxCell>
        <mxCell id="Fymf_JLJD3A4nTiIDgcB-9" value="" style="image;aspect=fixed;perimeter=ellipsePerimeter;html=1;align=center;shadow=0;dashed=0;spacingTop=3;image=img/lib/active_directory/generic_server.svg;" vertex="1" parent="1">
          <mxGeometry x="186.4" y="500" width="33.6" height="60" as="geometry" />
        </mxCell>
        <mxCell id="Fymf_JLJD3A4nTiIDgcB-10" value="" style="fontColor=#0066CC;verticalAlign=top;verticalLabelPosition=bottom;labelPosition=center;align=center;html=1;outlineConnect=0;fillColor=#CCCCCC;strokeColor=#6881B3;gradientColor=none;gradientDirection=north;strokeWidth=2;shape=mxgraph.networks.security_camera;" vertex="1" parent="1">
          <mxGeometry x="260" y="515" width="36" height="30" as="geometry" />
        </mxCell>
        <mxCell id="Fymf_JLJD3A4nTiIDgcB-12" value="" style="image;points=[];aspect=fixed;html=1;align=center;shadow=0;dashed=0;image=img/lib/allied_telesis/switch/Switch_24_port_L2.svg;" vertex="1" parent="1">
          <mxGeometry x="50" y="320" width="74.4" height="51" as="geometry" />
        </mxCell>
        <mxCell id="Fymf_JLJD3A4nTiIDgcB-13" value="" style="html=1;verticalLabelPosition=bottom;align=center;labelBackgroundColor=#ffffff;verticalAlign=top;strokeWidth=2;strokeColor=#0080F0;shadow=0;dashed=0;shape=mxgraph.ios7.icons.printer;" vertex="1" parent="1">
          <mxGeometry x="610" y="365.5" width="30" height="25.5" as="geometry" />
        </mxCell>
        <mxCell id="Fymf_JLJD3A4nTiIDgcB-14" value="" style="html=1;verticalLabelPosition=bottom;align=center;labelBackgroundColor=#ffffff;verticalAlign=top;strokeWidth=2;strokeColor=#0080F0;shadow=0;dashed=0;shape=mxgraph.ios7.icons.printer;" vertex="1" parent="1">
          <mxGeometry x="610" y="250" width="30" height="25.5" as="geometry" />
        </mxCell>
        <mxCell id="Fymf_JLJD3A4nTiIDgcB-15" value="" style="html=1;verticalLabelPosition=bottom;align=center;labelBackgroundColor=#ffffff;verticalAlign=top;strokeWidth=2;strokeColor=#0080F0;shadow=0;dashed=0;shape=mxgraph.ios7.icons.printer;" vertex="1" parent="1">
          <mxGeometry x="610" y="310" width="30" height="25.5" as="geometry" />
        </mxCell>
        <mxCell id="Fymf_JLJD3A4nTiIDgcB-16" value="" style="fontColor=#0066CC;verticalAlign=top;verticalLabelPosition=bottom;labelPosition=center;align=center;html=1;outlineConnect=0;fillColor=#CCCCCC;strokeColor=#6881B3;gradientColor=none;gradientDirection=north;strokeWidth=2;shape=mxgraph.networks.pc;" vertex="1" parent="1">
          <mxGeometry x="500" y="95" width="46.8" height="40" as="geometry" />
        </mxCell>
        <mxCell id="Fymf_JLJD3A4nTiIDgcB-17" value="" style="fontColor=#0066CC;verticalAlign=top;verticalLabelPosition=bottom;labelPosition=center;align=center;html=1;outlineConnect=0;fillColor=#CCCCCC;strokeColor=#6881B3;gradientColor=none;gradientDirection=north;strokeWidth=2;shape=mxgraph.networks.pc;" vertex="1" parent="1">
          <mxGeometry x="330" y="95" width="46.8" height="40" as="geometry" />
        </mxCell>
        <mxCell id="Fymf_JLJD3A4nTiIDgcB-20" value="" style="image;points=[];aspect=fixed;html=1;align=center;shadow=0;dashed=0;image=img/lib/allied_telesis/switch/Switch_24_port_L2.svg;" vertex="1" parent="1">
          <mxGeometry x="320" y="210" width="74.4" height="51" as="geometry" />
        </mxCell>
        <mxCell id="Fymf_JLJD3A4nTiIDgcB-21" value="" style="image;points=[];aspect=fixed;html=1;align=center;shadow=0;dashed=0;image=img/lib/allied_telesis/switch/Switch_24_port_L2.svg;" vertex="1" parent="1">
          <mxGeometry x="493.9" y="297.25" width="74.4" height="51" as="geometry" />
        </mxCell>
        <mxCell id="Fymf_JLJD3A4nTiIDgcB-22" value="" style="image;points=[];aspect=fixed;html=1;align=center;shadow=0;dashed=0;image=img/lib/allied_telesis/switch/Switch_24_port_L2.svg;" vertex="1" parent="1">
          <mxGeometry x="185.60000000000002" y="420" width="74.4" height="51" as="geometry" />
        </mxCell>
        <mxCell id="Fymf_JLJD3A4nTiIDgcB-23" value="" style="image;points=[];aspect=fixed;html=1;align=center;shadow=0;dashed=0;image=img/lib/allied_telesis/switch/Switch_24_port_L2.svg;" vertex="1" parent="1">
          <mxGeometry x="446.2" y="430" width="74.4" height="51" as="geometry" />
        </mxCell>
        <mxCell id="Fymf_JLJD3A4nTiIDgcB-25" value="" style="endArrow=none;html=1;rounded=0;entryX=0.508;entryY=1;entryDx=0;entryDy=0;entryPerimeter=0;" edge="1" parent="1" target="Fymf_JLJD3A4nTiIDgcB-23">
          <mxGeometry width="50" height="50" relative="1" as="geometry">
            <mxPoint x="440" y="510" as="sourcePoint" />
            <mxPoint x="440" y="400" as="targetPoint" />
          </mxGeometry>
        </mxCell>
        <mxCell id="Fymf_JLJD3A4nTiIDgcB-26" value="" style="endArrow=none;html=1;rounded=0;entryX=0.616;entryY=1.039;entryDx=0;entryDy=0;entryPerimeter=0;exitX=0;exitY=0;exitDx=0;exitDy=0;" edge="1" parent="1" source="Fymf_JLJD3A4nTiIDgcB-6" target="Fymf_JLJD3A4nTiIDgcB-23">
          <mxGeometry width="50" height="50" relative="1" as="geometry">
            <mxPoint x="450" y="520" as="sourcePoint" />
            <mxPoint x="494" y="491" as="targetPoint" />
          </mxGeometry>
        </mxCell>
        <mxCell id="Fymf_JLJD3A4nTiIDgcB-27" value="" style="endArrow=none;html=1;rounded=0;entryX=0.516;entryY=1.02;entryDx=0;entryDy=0;entryPerimeter=0;exitX=0.25;exitY=0;exitDx=0;exitDy=0;" edge="1" parent="1" source="Fymf_JLJD3A4nTiIDgcB-5" target="Fymf_JLJD3A4nTiIDgcB-40">
          <mxGeometry width="50" height="50" relative="1" as="geometry">
            <mxPoint x="460" y="530" as="sourcePoint" />
            <mxPoint x="504" y="501" as="targetPoint" />
            <Array as="points" />
          </mxGeometry>
        </mxCell>
        <mxCell id="Fymf_JLJD3A4nTiIDgcB-28" value="" style="endArrow=none;html=1;rounded=0;entryX=-0.067;entryY=0.451;entryDx=0;entryDy=0;entryPerimeter=0;" edge="1" parent="1" source="Fymf_JLJD3A4nTiIDgcB-21" target="Fymf_JLJD3A4nTiIDgcB-13">
          <mxGeometry width="50" height="50" relative="1" as="geometry">
            <mxPoint x="470" y="540" as="sourcePoint" />
            <mxPoint x="514" y="511" as="targetPoint" />
          </mxGeometry>
        </mxCell>
        <mxCell id="Fymf_JLJD3A4nTiIDgcB-29" value="" style="endArrow=none;html=1;rounded=0;entryX=0;entryY=0.392;entryDx=0;entryDy=0;entryPerimeter=0;" edge="1" parent="1" source="Fymf_JLJD3A4nTiIDgcB-21" target="Fymf_JLJD3A4nTiIDgcB-15">
          <mxGeometry width="50" height="50" relative="1" as="geometry">
            <mxPoint x="480" y="550" as="sourcePoint" />
            <mxPoint x="524" y="521" as="targetPoint" />
          </mxGeometry>
        </mxCell>
        <mxCell id="Fymf_JLJD3A4nTiIDgcB-30" value="" style="endArrow=none;html=1;rounded=0;entryX=-0.033;entryY=0.353;entryDx=0;entryDy=0;entryPerimeter=0;exitX=0.956;exitY=0.446;exitDx=0;exitDy=0;exitPerimeter=0;" edge="1" parent="1" source="Fymf_JLJD3A4nTiIDgcB-21" target="Fymf_JLJD3A4nTiIDgcB-14">
          <mxGeometry width="50" height="50" relative="1" as="geometry">
            <mxPoint x="490" y="560" as="sourcePoint" />
            <mxPoint x="534" y="531" as="targetPoint" />
          </mxGeometry>
        </mxCell>
        <mxCell id="Fymf_JLJD3A4nTiIDgcB-31" value="" style="endArrow=none;html=1;rounded=0;entryX=0.5;entryY=1;entryDx=0;entryDy=0;entryPerimeter=0;exitX=0.43;exitY=0.039;exitDx=0;exitDy=0;exitPerimeter=0;" edge="1" parent="1" source="Fymf_JLJD3A4nTiIDgcB-20" target="Fymf_JLJD3A4nTiIDgcB-1">
          <mxGeometry width="50" height="50" relative="1" as="geometry">
            <mxPoint x="500" y="570" as="sourcePoint" />
            <mxPoint x="544" y="541" as="targetPoint" />
          </mxGeometry>
        </mxCell>
        <mxCell id="Fymf_JLJD3A4nTiIDgcB-32" value="" style="endArrow=none;html=1;rounded=0;exitX=0.484;exitY=0.039;exitDx=0;exitDy=0;exitPerimeter=0;" edge="1" parent="1" source="Fymf_JLJD3A4nTiIDgcB-20" target="Fymf_JLJD3A4nTiIDgcB-17">
          <mxGeometry width="50" height="50" relative="1" as="geometry">
            <mxPoint x="510" y="580" as="sourcePoint" />
            <mxPoint x="554" y="551" as="targetPoint" />
          </mxGeometry>
        </mxCell>
        <mxCell id="Fymf_JLJD3A4nTiIDgcB-33" value="" style="endArrow=none;html=1;rounded=0;entryX=0.5;entryY=1;entryDx=0;entryDy=0;entryPerimeter=0;exitX=0.538;exitY=0;exitDx=0;exitDy=0;exitPerimeter=0;" edge="1" parent="1" source="Fymf_JLJD3A4nTiIDgcB-20" target="Fymf_JLJD3A4nTiIDgcB-16">
          <mxGeometry width="50" height="50" relative="1" as="geometry">
            <mxPoint x="520" y="590" as="sourcePoint" />
            <mxPoint x="564" y="561" as="targetPoint" />
          </mxGeometry>
        </mxCell>
        <mxCell id="Fymf_JLJD3A4nTiIDgcB-34" value="" style="endArrow=none;html=1;rounded=0;entryX=0.409;entryY=1.02;entryDx=0;entryDy=0;entryPerimeter=0;exitX=0.25;exitY=0;exitDx=0;exitDy=0;" edge="1" parent="1" source="Fymf_JLJD3A4nTiIDgcB-9" target="Fymf_JLJD3A4nTiIDgcB-22">
          <mxGeometry width="50" height="50" relative="1" as="geometry">
            <mxPoint x="530" y="600" as="sourcePoint" />
            <mxPoint x="574" y="571" as="targetPoint" />
          </mxGeometry>
        </mxCell>
        <mxCell id="Fymf_JLJD3A4nTiIDgcB-35" value="" style="endArrow=none;html=1;rounded=0;exitX=0.968;exitY=0.471;exitDx=0;exitDy=0;exitPerimeter=0;" edge="1" parent="1" source="Fymf_JLJD3A4nTiIDgcB-12" target="Fymf_JLJD3A4nTiIDgcB-22">
          <mxGeometry width="50" height="50" relative="1" as="geometry">
            <mxPoint x="200" y="335.5" as="sourcePoint" />
            <mxPoint x="244" y="306.5" as="targetPoint" />
          </mxGeometry>
        </mxCell>
        <mxCell id="Fymf_JLJD3A4nTiIDgcB-36" value="" style="endArrow=none;html=1;rounded=0;exitX=1;exitY=0.5;exitDx=0;exitDy=0;" edge="1" parent="1" source="Fymf_JLJD3A4nTiIDgcB-9" target="Fymf_JLJD3A4nTiIDgcB-10">
          <mxGeometry width="50" height="50" relative="1" as="geometry">
            <mxPoint x="206" y="513" as="sourcePoint" />
            <mxPoint x="226" y="482" as="targetPoint" />
          </mxGeometry>
        </mxCell>
        <mxCell id="Fymf_JLJD3A4nTiIDgcB-37" value="" style="endArrow=none;html=1;rounded=0;entryX=0.954;entryY=0.49;entryDx=0;entryDy=0;entryPerimeter=0;" edge="1" parent="1" source="Fymf_JLJD3A4nTiIDgcB-23" target="Fymf_JLJD3A4nTiIDgcB-12">
          <mxGeometry width="50" height="50" relative="1" as="geometry">
            <mxPoint x="216" y="523" as="sourcePoint" />
            <mxPoint x="236" y="492" as="targetPoint" />
          </mxGeometry>
        </mxCell>
        <mxCell id="Fymf_JLJD3A4nTiIDgcB-38" value="" style="endArrow=none;html=1;rounded=0;entryX=0.954;entryY=0.471;entryDx=0;entryDy=0;entryPerimeter=0;exitX=0.524;exitY=0.961;exitDx=0;exitDy=0;exitPerimeter=0;" edge="1" parent="1" source="Fymf_JLJD3A4nTiIDgcB-20" target="Fymf_JLJD3A4nTiIDgcB-12">
          <mxGeometry width="50" height="50" relative="1" as="geometry">
            <mxPoint x="226" y="533" as="sourcePoint" />
            <mxPoint x="246" y="502" as="targetPoint" />
          </mxGeometry>
        </mxCell>
        <mxCell id="Fymf_JLJD3A4nTiIDgcB-39" value="" style="endArrow=none;html=1;rounded=0;entryX=0.954;entryY=0.608;entryDx=0;entryDy=0;entryPerimeter=0;" edge="1" parent="1" source="Fymf_JLJD3A4nTiIDgcB-21" target="Fymf_JLJD3A4nTiIDgcB-12">
          <mxGeometry width="50" height="50" relative="1" as="geometry">
            <mxPoint x="236" y="543" as="sourcePoint" />
            <mxPoint x="256" y="512" as="targetPoint" />
          </mxGeometry>
        </mxCell>
        <mxCell id="Fymf_JLJD3A4nTiIDgcB-40" value="" style="image;points=[];aspect=fixed;html=1;align=center;shadow=0;dashed=0;image=img/lib/allied_telesis/switch/Switch_24_port_L2.svg;" vertex="1" parent="1">
          <mxGeometry x="535.6" y="410" width="74.4" height="51" as="geometry" />
        </mxCell>
        <mxCell id="Fymf_JLJD3A4nTiIDgcB-42" value="" style="endArrow=none;html=1;rounded=0;entryX=0.954;entryY=0.549;entryDx=0;entryDy=0;entryPerimeter=0;exitX=0.167;exitY=0.059;exitDx=0;exitDy=0;exitPerimeter=0;" edge="1" parent="1" source="Fymf_JLJD3A4nTiIDgcB-40" target="Fymf_JLJD3A4nTiIDgcB-12">
          <mxGeometry width="50" height="50" relative="1" as="geometry">
            <mxPoint x="456" y="454" as="sourcePoint" />
            <mxPoint x="131" y="355" as="targetPoint" />
          </mxGeometry>
        </mxCell>
        <mxCell id="Fymf_JLJD3A4nTiIDgcB-43" value="" style="ellipse;whiteSpace=wrap;html=1;fillColor=none;" vertex="1" parent="1">
          <mxGeometry x="102.80000000000001" y="400" width="240" height="220" as="geometry" />
        </mxCell>
        <mxCell id="Fymf_JLJD3A4nTiIDgcB-44" value="" style="ellipse;whiteSpace=wrap;html=1;fillColor=none;" vertex="1" parent="1">
          <mxGeometry x="370" y="391" width="283.2" height="220" as="geometry" />
        </mxCell>
        <mxCell id="Fymf_JLJD3A4nTiIDgcB-45" value="" style="ellipse;whiteSpace=wrap;html=1;fillColor=none;" vertex="1" parent="1">
          <mxGeometry x="493.9" y="220" width="216.1" height="180" as="geometry" />
        </mxCell>
        <mxCell id="Fymf_JLJD3A4nTiIDgcB-46" value="" style="ellipse;whiteSpace=wrap;html=1;fillColor=none;" vertex="1" parent="1">
          <mxGeometry x="68.55" y="40" width="541.45" height="230" as="geometry" />
        </mxCell>
        <mxCell id="Fymf_JLJD3A4nTiIDgcB-47" value="Postos de Trabalho" style="text;html=1;align=center;verticalAlign=middle;resizable=0;points=[];autosize=1;strokeColor=none;fillColor=none;" vertex="1" parent="1">
          <mxGeometry x="274.28" y="10" width="130" height="30" as="geometry" />
        </mxCell>
        <mxCell id="Fymf_JLJD3A4nTiIDgcB-48" value="Sistema de Vigilancia" style="text;html=1;align=center;verticalAlign=middle;resizable=0;points=[];autosize=1;strokeColor=none;fillColor=none;" vertex="1" parent="1">
          <mxGeometry x="150" y="640" width="140" height="30" as="geometry" />
        </mxCell>
        <mxCell id="Fymf_JLJD3A4nTiIDgcB-50" value="Telecomunicações" style="text;html=1;align=center;verticalAlign=middle;resizable=0;points=[];autosize=1;strokeColor=none;fillColor=none;" vertex="1" parent="1">
          <mxGeometry x="456.2" y="620" width="120" height="30" as="geometry" />
        </mxCell>
        <mxCell id="Fymf_JLJD3A4nTiIDgcB-51" value="Impressoras" style="text;html=1;align=center;verticalAlign=middle;resizable=0;points=[];autosize=1;strokeColor=none;fillColor=none;" vertex="1" parent="1">
          <mxGeometry x="710" y="295" width="90" height="30" as="geometry" />
        </mxCell>
      </root>
    </mxGraphModel>
  </diagram>
</mxfile>
